<svg xmlns="http://www.w3.org/2000/svg" width="21" height="34" viewBox="0 0 21 34"><defs><clipPath id="a"><path data-name="Rectangle 247" transform="translate(360.542 879.596)" fill="#fff" stroke="#707070" d="M0 0h21v34H0z"/></clipPath></defs><g data-name="Mask Group 521" transform="translate(-360.542 -879.596)" clip-path="url(#a)"><g data-name="infomation circle.3.3.1"><g data-name="Group 701" fill="#fff"><path data-name="Ellipse 40" d="M370.194 872.164a24.23 24.23 0 0 1 17.139 41.376 24.237 24.237 0 1 1-26.576-39.471 24.087 24.087 0 0 1 9.437-1.905zm0 45.474a21.243 21.243 0 0 0 8.263-40.806 21.243 21.243 0 0 0-16.529 39.138 21.1 21.1 0 0 0 8.266 1.668z"/><path data-name="Line 130" d="M376.393 912.37h-12.4a1.5 1.5 0 0 1-1.5-1.5 1.5 1.5 0 0 1 1.5-1.5h12.4a1.5 1.5 0 0 1 1.5 1.5 1.5 1.5 0 0 1-1.5 1.5z"/><path data-name="Path 311" d="M370.194 911.337a1.5 1.5 0 0 1-1.5-1.5v-16.07h-2.634a1.5 1.5 0 0 1 0-3h4.134a1.5 1.5 0 0 1 1.5 1.5v17.57a1.5 1.5 0 0 1-1.5 1.5z"/><g data-name="Group 700"><path data-name="Path 312" d="M369.161 882.966a1.034 1.034 0 1 0 1.034 1.034 1.034 1.034 0 0 0-1.034-1.034z"/><path data-name="Path 312 - Outline" d="M369.161 881.466a2.534 2.534 0 1 1-2.534 2.534 2.536 2.536 0 0 1 2.534-2.534z"/></g></g></g></g></svg>
