<svg xmlns="http://www.w3.org/2000/svg" xmlns:xlink="http://www.w3.org/1999/xlink" width="227.603" height="66.829" viewBox="0 0 227.603 66.829">
  <defs>
    <clipPath id="clip-path">
      <rect id="Rectangle_87" data-name="Rectangle 87" width="227.603" height="66.829" fill="#fff"/>
    </clipPath>
    <clipPath id="clip-path-2">
      <rect id="Rectangle_86" data-name="Rectangle 86" width="152515" height="152515" fill="#fff"/>
    </clipPath>
  </defs>
  <g id="Group_161" data-name="Group 161" transform="translate(-687.397 -520.867)">
    <g id="Group_160" data-name="Group 160" transform="translate(687.397 520.867)" clip-path="url(#clip-path)">
      <g id="Group_159" data-name="Group 159" transform="translate(-77858.391 -76057.57)" style="isolation: isolate">
        <g id="Group_158" data-name="Group 158">
          <g id="Group_157" data-name="Group 157" clip-path="url(#clip-path-2)">
            <rect id="Rectangle_81" data-name="Rectangle 81" width="3.291" height="19.705" transform="translate(77868.813 76090.992)" fill="#fff"/>
            <path id="Path_107" data-name="Path 107" d="M696.112,575.786h65.67v-65.67h-65.67Zm3.279-62.391h59.1v59.1h-59.1Z" transform="translate(77182.563 75548.031)" fill="#fff"/>
            <rect id="Rectangle_82" data-name="Rectangle 82" width="3.279" height="19.705" transform="translate(77888.516 76090.992)" fill="#fff"/>
            <rect id="Rectangle_83" data-name="Rectangle 83" width="3.279" height="19.705" transform="translate(77898.367 76090.992)" fill="#fff"/>
            <rect id="Rectangle_84" data-name="Rectangle 84" width="3.279" height="19.705" transform="translate(77908.227 76090.992)" fill="#fff"/>
            <rect id="Rectangle_85" data-name="Rectangle 85" width="3.291" height="19.705" transform="translate(77858.969 76090.992)" fill="#fff"/>
            <path id="Path_108" data-name="Path 108" d="M754.182,548.75v-8.7a10.19,10.19,0,0,0-.256-2.376,5.16,5.16,0,0,0-.856-1.876,4.069,4.069,0,0,0-1.576-1.229,5.987,5.987,0,0,0-2.432-.44,6.316,6.316,0,0,0-2.979.672,5.292,5.292,0,0,0-2.12,2.132,4.167,4.167,0,0,0-1.783-2.178,6.469,6.469,0,0,0-5.478-.035,4.9,4.9,0,0,0-1.971,1.873l-.082-2.255h-3.265c.058,1.887.082,3.742.082,5.548v8.862h3.312v-8.006a6.532,6.532,0,0,1,.186-1.6,4.209,4.209,0,0,1,.591-1.357,2.912,2.912,0,0,1,1.043-.938,3.171,3.171,0,0,1,1.587-.358,3.092,3.092,0,0,1,1.529.324,2.408,2.408,0,0,1,.915.88,3.5,3.5,0,0,1,.428,1.3,11.046,11.046,0,0,1,.1,1.541v8.2h3.312v-7.948a9.492,9.492,0,0,1,.14-1.666,3.977,3.977,0,0,1,.51-1.382,2.666,2.666,0,0,1,1.019-.924,3.484,3.484,0,0,1,1.669-.347,3.327,3.327,0,0,1,1.541.312,2.292,2.292,0,0,1,.926.856,3.29,3.29,0,0,1,.44,1.275,9.249,9.249,0,0,1,.116,1.529v8.294h3.349Zm17.526,0c-.035-.88-.07-1.75-.081-2.618s-.035-1.727-.035-2.583V534.34h-3.314v7.552a9.344,9.344,0,0,1-.161,1.727,4.693,4.693,0,0,1-.556,1.517,3.089,3.089,0,0,1-1.066,1.078,3.38,3.38,0,0,1-1.727.4,3.274,3.274,0,0,1-1.666-.37,2.346,2.346,0,0,1-.917-.984,4.063,4.063,0,0,1-.37-1.415c-.047-.533-.07-1.087-.07-1.655v-7.831h-3.312v9.127a5.915,5.915,0,0,0,1.273,4.042,5.05,5.05,0,0,0,3.984,1.45,5.559,5.559,0,0,0,2.665-.591,6.479,6.479,0,0,0,2-1.785l.082,2.178h3.267Zm-2.143-20.724h-3.233v2.884h3.233Zm-6.034,0H760.3v2.884h3.233Zm25.681,20.724v-9.116a6.024,6.024,0,0,0-1.229-4.045,4.953,4.953,0,0,0-3.972-1.448,5.7,5.7,0,0,0-2.688.591,6.167,6.167,0,0,0-2.027,1.785l-.058-2.178h-3.288c.023.533.035,1.066.058,1.587s.035,1.054.035,1.587V548.75h3.312v-6.975a13.633,13.633,0,0,1,.128-1.76,5.755,5.755,0,0,1,.5-1.715,3.235,3.235,0,0,1,1.078-1.3,2.981,2.981,0,0,1,1.841-.51,3.151,3.151,0,0,1,1.657.37,2.372,2.372,0,0,1,.9.984,4.007,4.007,0,0,1,.372,1.413c.047.533.068,1.089.068,1.657v7.831Zm17.04-5.108h-3.312a3.791,3.791,0,0,1-.847,2.385,2.848,2.848,0,0,1-2.3.926,3.17,3.17,0,0,1-1.832-.5,3.636,3.636,0,0,1-1.182-1.3,5.569,5.569,0,0,1-.624-1.762,9.47,9.47,0,0,1-.186-1.876,10,10,0,0,1,.186-1.946,5.774,5.774,0,0,1,.635-1.762A3.662,3.662,0,0,1,798,536.541a3.442,3.442,0,0,1,1.9-.486,2.784,2.784,0,0,1,2.19.845,3.565,3.565,0,0,1,.847,2.248H806.2a6.456,6.456,0,0,0-.624-2.364,4.935,4.935,0,0,0-1.357-1.634,5.6,5.6,0,0,0-1.934-.938,8.969,8.969,0,0,0-2.376-.3,8.19,8.19,0,0,0-3.16.568,6.424,6.424,0,0,0-2.33,1.6A6.937,6.937,0,0,0,793,538.522a9.535,9.535,0,0,0-.486,3.128,9.7,9.7,0,0,0,.451,3.058,6.152,6.152,0,0,0,1.366,2.339,6.31,6.31,0,0,0,2.26,1.517,8.281,8.281,0,0,0,3.116.545,8.63,8.63,0,0,0,2.56-.358,6.131,6.131,0,0,0,2.062-1.054,5.11,5.11,0,0,0,1.389-1.715,5.253,5.253,0,0,0,.533-2.339m16.2,5.108V539.6a6.029,6.029,0,0,0-1.229-4.077,5.066,5.066,0,0,0-4.007-1.415,5.527,5.527,0,0,0-4.634,2.318v-8.352h-3.314V548.75h3.314v-7.575a8.062,8.062,0,0,1,.186-1.75,4.764,4.764,0,0,1,.6-1.517,3.171,3.171,0,0,1,1.089-1.054,3.237,3.237,0,0,1,1.68-.4,3.173,3.173,0,0,1,1.657.37,2.432,2.432,0,0,1,.9.973,3.943,3.943,0,0,1,.37,1.4c.046.533.07,1.089.07,1.657v7.889h3.314Zm17.04-6.544a16.341,16.341,0,0,0-.3-3.174,7.271,7.271,0,0,0-1.054-2.606,5.476,5.476,0,0,0-2.027-1.773,6.885,6.885,0,0,0-3.186-.661,7.807,7.807,0,0,0-3.151.591,6.413,6.413,0,0,0-2.248,1.61,6.715,6.715,0,0,0-1.343,2.455,10.637,10.637,0,0,0-.44,3.116,9.645,9.645,0,0,0,.44,3,6.3,6.3,0,0,0,1.331,2.3,5.882,5.882,0,0,0,2.2,1.471,8.173,8.173,0,0,0,3.035.51,9.25,9.25,0,0,0,2.362-.289,6.338,6.338,0,0,0,2.029-.9,5.322,5.322,0,0,0,1.506-1.576,5.748,5.748,0,0,0,.8-2.306h-3.2a3.443,3.443,0,0,1-1.089,2.2,3.39,3.39,0,0,1-2.292.775,3.783,3.783,0,0,1-1.727-.37,3.6,3.6,0,0,1-1.205-1,4.155,4.155,0,0,1-.717-1.448,6.447,6.447,0,0,1-.233-1.727v-.23h10.507Zm-10.438-2.027a7.121,7.121,0,0,1,.347-1.552,4.147,4.147,0,0,1,.731-1.31,3.467,3.467,0,0,1,1.147-.891,3.86,3.86,0,0,1,3.1,0,3.081,3.081,0,0,1,1.066.891,3.724,3.724,0,0,1,.614,1.31,5.828,5.828,0,0,1,.2,1.552Zm26.991,8.571v-9.116a6.024,6.024,0,0,0-1.229-4.045,4.953,4.953,0,0,0-3.972-1.448,5.663,5.663,0,0,0-2.688.591,6.167,6.167,0,0,0-2.027,1.785l-.058-2.178h-3.288c.023.533.035,1.066.058,1.587s.033,1.054.033,1.587V548.75h3.314v-6.975a13.633,13.633,0,0,1,.128-1.76,5.857,5.857,0,0,1,.5-1.715,3.235,3.235,0,0,1,1.077-1.3,2.982,2.982,0,0,1,1.841-.51,3.151,3.151,0,0,1,1.657.37,2.375,2.375,0,0,1,.9.984,4.007,4.007,0,0,1,.372,1.413c.044.533.068,1.089.068,1.657v7.831Z" transform="translate(77229.375 75571.805)" fill="#fff"/>
            <path id="Path_109" data-name="Path 109" d="M744.652,536.438v-9.127a6.035,6.035,0,0,0-1.226-4.045,4.962,4.962,0,0,0-3.975-1.448,5.679,5.679,0,0,0-2.686.591,6.179,6.179,0,0,0-2.029,1.785l-.056-2.178h-3.291c.023.533.035,1.066.058,1.587s.023,1.054.023,1.587v11.236h3.312v-6.975a13.651,13.651,0,0,1,.128-1.759,5.936,5.936,0,0,1,.5-1.715,3.252,3.252,0,0,1,1.077-1.3,2.984,2.984,0,0,1,1.843-.51,3.147,3.147,0,0,1,1.655.37,2.41,2.41,0,0,1,.905.984,4.055,4.055,0,0,1,.37,1.413c.047.533.07,1.089.07,1.657v7.831h3.323ZM760,530.553a3.487,3.487,0,0,0-.94-1.122,5.588,5.588,0,0,0-1.4-.8,12.561,12.561,0,0,0-1.759-.556l-1.727-.428a6.705,6.705,0,0,1-1.911-.777,1.424,1.424,0,0,1-.731-1.285,1.488,1.488,0,0,1,.242-.845,2.123,2.123,0,0,1,.615-.591,2.733,2.733,0,0,1,.847-.326,4.118,4.118,0,0,1,.9-.1,2.643,2.643,0,0,1,1.876.589,2.671,2.671,0,0,1,.673,1.866h3.232a5.081,5.081,0,0,0-.51-2.132,3.865,3.865,0,0,0-1.217-1.4,5.213,5.213,0,0,0-1.75-.777,8.791,8.791,0,0,0-2.106-.242,10.383,10.383,0,0,0-2.041.207,6.4,6.4,0,0,0-1.922.719,4.286,4.286,0,0,0-1.436,1.3,3.4,3.4,0,0,0-.556,1.992,3.12,3.12,0,0,0,1.171,2.653,8.693,8.693,0,0,0,3.209,1.368l1.483.37a6.626,6.626,0,0,1,2.027.81,1.586,1.586,0,0,1,.74,1.415,1.737,1.737,0,0,1-.254.973,2.454,2.454,0,0,1-.661.682,2.922,2.922,0,0,1-.9.419,4.291,4.291,0,0,1-1.019.126,2.575,2.575,0,0,1-2.863-2.779H748a4.919,4.919,0,0,0,.545,2.3,4.506,4.506,0,0,0,1.331,1.506,5.235,5.235,0,0,0,1.89.812,10.309,10.309,0,0,0,2.281.242,11.227,11.227,0,0,0,2.236-.23,6.128,6.128,0,0,0,2.016-.777,4.414,4.414,0,0,0,1.471-1.424,3.966,3.966,0,0,0,.568-2.2,3.212,3.212,0,0,0-.335-1.552m17.075,5.886c-.058-.708-.093-1.389-.1-2.062s-.012-1.331-.012-2V515.761h-3.314v8.271a5.621,5.621,0,0,0-1.957-1.808,5.8,5.8,0,0,0-2.618-.545,6.017,6.017,0,0,0-2.825.626,5.915,5.915,0,0,0-1.994,1.669,7.02,7.02,0,0,0-1.157,2.385,10.6,10.6,0,0,0-.372,2.8,10.894,10.894,0,0,0,.361,2.851,7.176,7.176,0,0,0,1.122,2.4,5.493,5.493,0,0,0,1.971,1.657,6.393,6.393,0,0,0,2.918.614,5.144,5.144,0,0,0,4.575-2.295l.116,2.027h3.291Zm-3.544-5.4a5.379,5.379,0,0,1-.6,1.692,3.717,3.717,0,0,1-1.136,1.252,3.041,3.041,0,0,1-1.762.486,3.535,3.535,0,0,1-1.9-.475,3.623,3.623,0,0,1-1.205-1.229,5.2,5.2,0,0,1-.626-1.7,10.731,10.731,0,0,1-.184-1.922,10.077,10.077,0,0,1,.172-1.818,5.483,5.483,0,0,1,.591-1.68,3.684,3.684,0,0,1,1.112-1.229,3.015,3.015,0,0,1,1.762-.486,3.465,3.465,0,0,1,1.864.475,3.883,3.883,0,0,1,1.217,1.229,5.267,5.267,0,0,1,.672,1.7,9.6,9.6,0,0,1,.2,1.887,10.069,10.069,0,0,1-.172,1.818m21.266-5a6.429,6.429,0,0,0-1.459-2.362,6.562,6.562,0,0,0-2.327-1.506,8.714,8.714,0,0,0-3.116-.533,8.48,8.48,0,0,0-3.1.533,6.735,6.735,0,0,0-2.376,1.517,6.822,6.822,0,0,0-1.517,2.362,8.665,8.665,0,0,0-.533,3.093,9.181,9.181,0,0,0,.5,3.116,6.507,6.507,0,0,0,1.471,2.4,6.59,6.59,0,0,0,2.341,1.541,8.557,8.557,0,0,0,3.151.545,8.243,8.243,0,0,0,3.1-.556,6.789,6.789,0,0,0,2.362-1.552,6.663,6.663,0,0,0,1.482-2.4,8.754,8.754,0,0,0,.521-3.093,9.287,9.287,0,0,0-.5-3.1m-3.172,5.05a5.98,5.98,0,0,1-.684,1.773,3.883,3.883,0,0,1-1.229,1.3,3.3,3.3,0,0,1-1.876.5,3.356,3.356,0,0,1-1.887-.5,3.962,3.962,0,0,1-1.24-1.285,5.726,5.726,0,0,1-.673-1.773,9.23,9.23,0,0,1-.2-1.934,9.9,9.9,0,0,1,.2-1.934,5.385,5.385,0,0,1,.673-1.715,3.815,3.815,0,0,1,1.24-1.229,3.988,3.988,0,0,1,3.775,0,3.839,3.839,0,0,1,1.24,1.229,5.23,5.23,0,0,1,.673,1.715,10.008,10.008,0,0,1,.2,1.934,9.226,9.226,0,0,1-.207,1.922m10.365-15.325h-3.314v20.677h3.314Zm10.833,20.677-6.951-8.259L812.223,522h-4.089l-6.116,6.291,6.579,8.155h4.229Zm15.325,0c-.035-.88-.07-1.75-.081-2.618s-.023-1.727-.023-2.583v-9.209h-3.312v7.552a8.441,8.441,0,0,1-.163,1.727,4.6,4.6,0,0,1-.556,1.517,3.009,3.009,0,0,1-1.078,1.078,3.989,3.989,0,0,1-3.4.023,2.346,2.346,0,0,1-.917-.984,4.069,4.069,0,0,1-.37-1.415c-.047-.531-.07-1.087-.07-1.655V522.04h-3.312v9.127a5.916,5.916,0,0,0,1.273,4.042,5.047,5.047,0,0,0,3.987,1.45,5.548,5.548,0,0,0,2.662-.591,6.377,6.377,0,0,0,2.006-1.785l.079,2.178h3.279Z" transform="translate(77229.383 75555.523)" fill="#fff"/>
          </g>
        </g>
      </g>
    </g>
  </g>
</svg>
