<svg xmlns="http://www.w3.org/2000/svg" width="45" height="45" viewBox="0 0 45 45"><g data-name="Group 912"><g data-name="Ellipse 44" fill="#fff" stroke="#fff" stroke-width="2"><circle cx="22.5" cy="22.5" r="22.5" stroke="none"/><circle cx="22.5" cy="22.5" r="21.5" fill="none"/></g><path data-name="Path 325" d="m7.583 38.637.08-.109" fill="#fff" stroke="#fff" stroke-linejoin="round" stroke-width="2"/><g data-name="Ellipse 45" fill="none" stroke="#fff" stroke-width="2"><circle cx="22.5" cy="22.5" r="22.5" stroke="none"/><circle cx="22.5" cy="22.5" r="21.5"/></g><g data-name="Outline Icons"><g data-name="Group 913" fill="none" stroke="black" stroke-linecap="round" stroke-width="2"><path data-name="Path 339" d="M41.474 22.423a19.038 19.038 0 0 1-19.028 19.052c-10.509-.002-18.922-8.87-18.922-19.389A18.555 18.555 0 0 1 21.682 3.541c.274-.012.548-.018.825-.018a18.864 18.864 0 0 1 18.967 18.9Z" stroke-linejoin="round"/><path data-name="Path 340" d="M19.68 4.423c-5.719 10.226-5.719 23.567 0 36.152" stroke-linejoin="round"/><path data-name="Path 341" d="M25.336 4.418c5.72 10.229 5.72 23.57 0 36.159" stroke-linejoin="round"/><path data-name="Path 342" d="M7.795 11.773h29.7"/><path data-name="Line 150" stroke-linejoin="round" d="M3.999 22.001h37"/><path data-name="Line 151" stroke-linejoin="round" d="M6.501 31.5h32"/></g></g></g></svg>
